<?xml version="1.0" standalone="no"?>
<!DOCTYPE svg PUBLIC "-//W3C//DTD SVG 20010904//EN"
 "http://www.w3.org/TR/2001/REC-SVG-20010904/DTD/svg10.dtd">
<svg version="1.0" xmlns="http://www.w3.org/2000/svg"
 width="430.000000pt" height="230.000000pt" viewBox="0 0 430.000000 230.000000"
 preserveAspectRatio="xMidYMid meet">

<g transform="translate(0.000000,230.000000) scale(0.100000,-0.100000)"
fill="#000000" stroke="none">
<path d="M1024 1734 c-126 -45 -250 -252 -345 -574 l-28 -95 2 278 c1 152 1
277 0 277 -5 0 -160 -194 -210 -263 -50 -68 -65 -107 -43 -107 6 0 10 7 10 15
0 22 22 54 125 184 l90 115 3 -300 c2 -175 -2 -324 -8 -360 -11 -65 -14 -312
-4 -338 16 -41 22 -1 28 192 9 230 28 331 102 529 111 298 209 424 341 440 50
5 51 5 57 -23 3 -16 21 -103 40 -194 46 -214 67 -383 69 -542 2 -154 12 -168
32 -48 13 83 111 209 150 194 8 -3 19 -22 26 -41 18 -54 52 -64 204 -56 l126
6 -7 -61 c-5 -44 -3 -62 5 -62 6 0 11 13 11 29 0 16 3 43 6 60 l7 31 271 0
c296 -1 263 4 451 -69 126 -49 184 -40 263 40 l43 43 -1 -379 c-2 -445 -3
-405 10 -405 7 0 10 141 10 404 l0 403 43 65 c95 145 167 344 151 416 -10 44
-50 106 -93 145 -23 21 -45 37 -51 37 -5 0 -19 -18 -30 -39 -17 -35 -21 -71
-30 -288 -5 -136 -10 -267 -10 -291 0 -36 -6 -49 -40 -86 -48 -52 -94 -76
-147 -76 -41 0 -178 47 -221 77 -24 16 -56 18 -325 21 l-298 3 6 32 c2 18 14
100 26 182 11 83 22 152 24 154 2 2 31 -23 65 -54 33 -32 60 -52 60 -45 0 7
-7 48 -16 91 -23 117 -24 115 86 159 52 21 96 43 98 49 5 15 7 15 -83 -23
-137 -57 -125 -62 -125 45 0 115 -14 109 -62 -26 l-33 -94 -55 -6 c-30 -4 -61
-8 -68 -11 -22 -7 -8 -29 19 -30 38 -2 89 -32 89 -53 0 -17 -32 -257 -46 -338
l-5 -33 -135 0 c-139 0 -174 8 -174 38 0 29 -29 62 -55 62 -32 0 -81 -43 -115
-103 l-28 -50 -6 44 c-3 24 -10 91 -16 149 -9 90 -26 178 -94 510 l-11 55 -45
2 c-25 1 -64 -5 -86 -13z m1939 -77 c74 -97 80 -178 25 -322 -34 -90 -115
-241 -125 -232 -2 3 0 125 6 271 13 331 27 371 94 283z m-1045 -128 c-40 -26
-44 -2 -12 65 8 16 15 36 16 45 1 9 3 -11 5 -43 3 -41 0 -62 -9 -67z m22 -41
c0 -13 6 -51 13 -85 l14 -63 -48 43 c-37 33 -47 49 -48 75 -1 25 4 35 22 42
36 14 47 11 47 -12z m-90 -18 c0 -23 -1 -24 -34 -9 -30 14 -25 29 10 29 17 0
24 -5 24 -20z"/>
</g>
</svg>
